<svg width="72" height="72" viewBox="0 0 72 72" fill="none" xmlns="http://www.w3.org/2000/svg">
<circle cx="36" cy="36" r="33.5" fill="white" stroke="#B74AF7" stroke-width="5"/>
<path d="M25.5254 54V49.584L36.2294 38.208C38.0534 36.256 39.3814 34.528 40.2134 33.024C41.0454 31.488 41.4614 30.016 41.4614 28.608C41.4614 26.656 40.9174 25.12 39.8294 24C38.7734 22.88 37.3174 22.32 35.4614 22.32C33.4134 22.32 31.7974 22.896 30.6134 24.048C29.4614 25.2 28.8854 26.784 28.8854 28.8H24.5654C24.6294 26.688 25.1094 24.864 26.0054 23.328C26.9334 21.76 28.1974 20.56 29.7974 19.728C31.4294 18.896 33.3174 18.48 35.4614 18.48C37.5734 18.48 39.3974 18.896 40.9334 19.728C42.5014 20.528 43.7014 21.68 44.5334 23.184C45.3654 24.688 45.7814 26.48 45.7814 28.56C45.7814 30.544 45.2534 32.512 44.1974 34.464C43.1414 36.416 41.4134 38.64 39.0134 41.136L30.3734 50.064H46.3574V54H25.5254Z" fill="#B74AF7"/>
</svg>
