<svg width="72" height="72" viewBox="0 0 72 72" fill="none" xmlns="http://www.w3.org/2000/svg">
<circle cx="36" cy="36" r="33.5" fill="white" stroke="#B74AF7" stroke-width="5"/>
<path d="M34.9814 54.48C32.8694 54.48 31.0134 54.064 29.4134 53.232C27.8454 52.368 26.6294 51.184 25.7654 49.68C24.9014 48.176 24.4694 46.416 24.4694 44.4H28.7894C28.7894 46.352 29.3334 47.888 30.4214 49.008C31.5414 50.096 33.0774 50.64 35.0294 50.64C37.0134 50.64 38.5494 50.064 39.6374 48.912C40.7254 47.76 41.2694 46.256 41.2694 44.4V41.904C41.2694 39.92 40.7254 38.384 39.6374 37.296C38.5494 36.208 37.0134 35.664 35.0294 35.664H31.4294V31.344L40.1174 22.896H25.9094V18.96H44.4854V23.28L35.1254 32.352V31.824C38.3254 31.824 40.8694 32.736 42.7574 34.56C44.6454 36.384 45.5894 38.832 45.5894 41.904V44.4C45.5894 46.416 45.1414 48.176 44.2454 49.68C43.3814 51.184 42.1494 52.368 40.5494 53.232C38.9494 54.064 37.0934 54.48 34.9814 54.48Z" fill="#B74AF7"/>
</svg>
