<svg width="72" height="72" viewBox="0 0 72 72" fill="none" xmlns="http://www.w3.org/2000/svg">
<circle cx="36" cy="36" r="36" fill="#B74AF7"/>
<path d="M35.9814 53.48C33.8694 53.48 32.0134 53.064 30.4134 52.232C28.8454 51.368 27.6294 50.184 26.7654 48.68C25.9014 47.176 25.4694 45.416 25.4694 43.4H29.7894C29.7894 45.352 30.3334 46.888 31.4214 48.008C32.5414 49.096 34.0774 49.64 36.0294 49.64C38.0134 49.64 39.5494 49.064 40.6374 47.912C41.7254 46.76 42.2694 45.256 42.2694 43.4V40.904C42.2694 38.92 41.7254 37.384 40.6374 36.296C39.5494 35.208 38.0134 34.664 36.0294 34.664H32.4294V30.344L41.1174 21.896H26.9094V17.96H45.4854V22.28L36.1254 31.352V30.824C39.3254 30.824 41.8694 31.736 43.7574 33.56C45.6454 35.384 46.5894 37.832 46.5894 40.904V43.4C46.5894 45.416 46.1414 47.176 45.2454 48.68C44.3814 50.184 43.1494 51.368 41.5494 52.232C39.9494 53.064 38.0934 53.48 35.9814 53.48Z" fill="white"/>
</svg>
