<svg width="72" height="72" viewBox="0 0 72 72" fill="none" xmlns="http://www.w3.org/2000/svg">
<circle cx="36" cy="36" r="33.5" fill="white" stroke="#B74AF7" stroke-width="5"/>
<path d="M36.5574 54.48C34.3174 54.48 32.3494 54.016 30.6534 53.088C28.9894 52.128 27.6934 50.8 26.7654 49.104C25.8374 47.408 25.3734 45.44 25.3734 43.2C25.3734 41.44 25.6134 39.712 26.0934 38.016C26.6054 36.32 27.3574 34.688 28.3494 33.12L37.1334 18.96H41.9334L31.9974 34.896L32.1894 35.04C32.7974 34.144 33.6294 33.456 34.6854 32.976C35.7414 32.496 36.9254 32.256 38.2374 32.256C40.1574 32.256 41.8214 32.704 43.2294 33.6C44.6374 34.496 45.7254 35.76 46.4934 37.392C47.2614 39.024 47.6454 40.96 47.6454 43.2C47.6454 45.44 47.1814 47.408 46.2534 49.104C45.3254 50.8 44.0294 52.128 42.3654 53.088C40.7334 54.016 38.7974 54.48 36.5574 54.48ZM36.5094 50.64C38.5574 50.64 40.2054 49.968 41.4534 48.624C42.7014 47.248 43.3254 45.44 43.3254 43.2C43.3254 40.96 42.7014 39.168 41.4534 37.824C40.2054 36.448 38.5574 35.76 36.5094 35.76C34.4614 35.76 32.8134 36.448 31.5654 37.824C30.3174 39.168 29.6934 40.96 29.6934 43.2C29.6934 45.44 30.3174 47.248 31.5654 48.624C32.8134 49.968 34.4614 50.64 36.5094 50.64Z" fill="#B74AF7"/>
</svg>
