<svg width="72" height="72" viewBox="0 0 72 72" fill="none" xmlns="http://www.w3.org/2000/svg">
<circle cx="36" cy="36" r="33.5" fill="white" stroke="#B74AF7" stroke-width="5"/>
<path d="M36.4134 54.48C33.5654 54.48 31.2294 53.744 29.4054 52.272C27.5814 50.8 26.5094 48.816 26.1894 46.32H30.5094C30.6694 47.696 31.2614 48.768 32.2854 49.536C33.3094 50.272 34.7014 50.64 36.4614 50.64C38.4774 50.64 39.9814 50.096 40.9734 49.008C41.9974 47.92 42.5094 46.384 42.5094 44.4V40.992C42.5094 39.008 41.9974 37.472 40.9734 36.384C39.9814 35.296 38.4934 34.752 36.5094 34.752C35.2614 34.752 34.1734 35.088 33.2454 35.76C32.3174 36.4 31.6454 37.264 31.2294 38.352H26.9094L27.1494 18.96H45.5814V22.896H31.3254L31.1814 34.56H32.5254L31.1814 35.808C31.1814 34.304 31.7734 33.12 32.9574 32.256C34.1734 31.392 35.7894 30.96 37.8054 30.96C40.6534 30.928 42.8614 31.808 44.4294 33.6C46.0294 35.36 46.8294 37.824 46.8294 40.992V44.4C46.8294 47.504 45.9174 49.968 44.0934 51.792C42.2694 53.584 39.7094 54.48 36.4134 54.48Z" fill="#B74AF7"/>
</svg>
