<svg width="72" height="72" viewBox="0 0 72 72" fill="none" xmlns="http://www.w3.org/2000/svg">
<circle cx="36" cy="36" r="36" fill="#B74AF7"/>
<path d="M36.4134 53.48C33.5654 53.48 31.2294 52.744 29.4054 51.272C27.5814 49.8 26.5094 47.816 26.1894 45.32H30.5094C30.6694 46.696 31.2614 47.768 32.2854 48.536C33.3094 49.272 34.7014 49.64 36.4614 49.64C38.4774 49.64 39.9814 49.096 40.9734 48.008C41.9974 46.92 42.5094 45.384 42.5094 43.4V39.992C42.5094 38.008 41.9974 36.472 40.9734 35.384C39.9814 34.296 38.4934 33.752 36.5094 33.752C35.2614 33.752 34.1734 34.088 33.2454 34.76C32.3174 35.4 31.6454 36.264 31.2294 37.352H26.9094L27.1494 17.96H45.5814V21.896H31.3254L31.1814 33.56H32.5254L31.1814 34.808C31.1814 33.304 31.7734 32.12 32.9574 31.256C34.1734 30.392 35.7894 29.96 37.8054 29.96C40.6534 29.928 42.8614 30.808 44.4294 32.6C46.0294 34.36 46.8294 36.824 46.8294 39.992V43.4C46.8294 46.504 45.9174 48.968 44.0934 50.792C42.2694 52.584 39.7094 53.48 36.4134 53.48Z" fill="white"/>
</svg>
