<svg width="72" height="72" viewBox="0 0 72 72" fill="none" xmlns="http://www.w3.org/2000/svg">
<circle cx="36" cy="36" r="36" fill="#B74AF7"/>
<path d="M36.5574 53.48C34.3174 53.48 32.3494 53.016 30.6534 52.088C28.9894 51.128 27.6934 49.8 26.7654 48.104C25.8374 46.408 25.3734 44.44 25.3734 42.2C25.3734 40.44 25.6134 38.712 26.0934 37.016C26.6054 35.32 27.3574 33.688 28.3494 32.12L37.1334 17.96H41.9334L31.9974 33.896L32.1894 34.04C32.7974 33.144 33.6294 32.456 34.6854 31.976C35.7414 31.496 36.9254 31.256 38.2374 31.256C40.1574 31.256 41.8214 31.704 43.2294 32.6C44.6374 33.496 45.7254 34.76 46.4934 36.392C47.2614 38.024 47.6454 39.96 47.6454 42.2C47.6454 44.44 47.1814 46.408 46.2534 48.104C45.3254 49.8 44.0294 51.128 42.3654 52.088C40.7334 53.016 38.7974 53.48 36.5574 53.48ZM36.5094 49.64C38.5574 49.64 40.2054 48.968 41.4534 47.624C42.7014 46.248 43.3254 44.44 43.3254 42.2C43.3254 39.96 42.7014 38.168 41.4534 36.824C40.2054 35.448 38.5574 34.76 36.5094 34.76C34.4614 34.76 32.8134 35.448 31.5654 36.824C30.3174 38.168 29.6934 39.96 29.6934 42.2C29.6934 44.44 30.3174 46.248 31.5654 47.624C32.8134 48.968 34.4614 49.64 36.5094 49.64Z" fill="white"/>
</svg>
