<svg width="916" height="126" viewBox="0 0 916 126" fill="none" xmlns="http://www.w3.org/2000/svg">
<rect width="916" height="126" fill="white"/>
<path d="M359.004 63.1395L355.502 65.156L355.507 61.1146L359.004 63.1395ZM243 62.65L355.855 62.7857L355.854 63.4857L243 63.35L243 62.65Z" fill="black"/>
<path d="M673.004 64.1395L669.502 66.156L669.507 62.1146L673.004 64.1395ZM557 63.65L669.855 63.7857L669.854 64.4857L557 64.35L557 63.65Z" fill="black"/>
<rect x="58" y="43" width="181" height="39" rx="12" fill="#F2F2F2"/>
<rect x="370" y="44" width="181" height="39" rx="12" fill="#F2F2F2"/>
<rect x="679" y="44" width="181" height="39" rx="12" fill="#F2F2F2"/>
<path d="M130.977 66.232C131.565 66.232 132.097 66.086 132.573 65.794C133.049 65.498 133.421 65.09 133.689 64.57C133.961 64.046 134.097 63.456 134.097 62.8C134.097 62.14 133.963 61.55 133.695 61.03C133.431 60.506 133.061 60.098 132.585 59.806C132.113 59.514 131.577 59.368 130.977 59.368C130.385 59.368 129.851 59.516 129.375 59.812C128.903 60.104 128.531 60.51 128.259 61.03C127.991 61.55 127.857 62.14 127.857 62.8C127.857 63.46 127.991 64.05 128.259 64.57C128.531 65.09 128.903 65.498 129.375 65.794C129.851 66.086 130.385 66.232 130.977 66.232ZM126.825 62.8C126.825 61.984 127.007 61.246 127.371 60.586C127.735 59.922 128.233 59.402 128.865 59.026C129.497 58.646 130.201 58.456 130.977 58.456C131.749 58.456 132.451 58.646 133.083 59.026C133.719 59.402 134.219 59.922 134.583 60.586C134.947 61.246 135.129 61.984 135.129 62.8C135.129 63.616 134.947 64.356 134.583 65.02C134.219 65.68 133.719 66.2 133.083 66.58C132.451 66.956 131.749 67.144 130.977 67.144C130.201 67.144 129.497 66.956 128.865 66.58C128.233 66.2 127.735 65.68 127.371 65.02C127.007 64.356 126.825 63.616 126.825 62.8ZM136.859 58.6H137.819V61.876C138.051 61.504 138.359 61.218 138.743 61.018C139.131 60.814 139.571 60.712 140.063 60.712C140.635 60.712 141.143 60.848 141.587 61.12C142.035 61.388 142.383 61.766 142.631 62.254C142.883 62.742 143.009 63.3 143.009 63.928C143.009 64.556 142.883 65.114 142.631 65.602C142.383 66.09 142.035 66.47 141.587 66.742C141.143 67.01 140.635 67.144 140.063 67.144C139.571 67.144 139.131 67.044 138.743 66.844C138.359 66.64 138.051 66.352 137.819 65.98V67H136.859V58.6ZM137.819 64.27C137.863 64.67 137.977 65.022 138.161 65.326C138.349 65.626 138.593 65.86 138.893 66.028C139.197 66.192 139.537 66.274 139.913 66.274C140.321 66.274 140.683 66.176 140.999 65.98C141.315 65.78 141.561 65.504 141.737 65.152C141.913 64.796 142.001 64.388 142.001 63.928C142.001 63.468 141.913 63.062 141.737 62.71C141.561 62.354 141.315 62.078 140.999 61.882C140.683 61.682 140.321 61.582 139.913 61.582C139.537 61.582 139.197 61.666 138.893 61.834C138.593 61.998 138.349 62.232 138.161 62.536C137.977 62.836 137.863 63.186 137.819 63.586V64.27ZM143.291 68.008H143.819C144.015 68.008 144.173 67.946 144.293 67.822C144.417 67.702 144.479 67.544 144.479 67.348V60.856H145.439V67.42C145.439 67.712 145.373 67.972 145.241 68.2C145.109 68.428 144.925 68.604 144.689 68.728C144.453 68.856 144.183 68.92 143.879 68.92H143.291V68.008ZM145.523 58.6V59.74H144.395V58.6H145.523ZM149.948 67.144C149.372 67.144 148.854 67.006 148.394 66.73C147.934 66.454 147.574 66.072 147.314 65.584C147.058 65.092 146.93 64.536 146.93 63.916C146.93 63.312 147.06 62.766 147.32 62.278C147.584 61.79 147.946 61.408 148.406 61.132C148.866 60.852 149.38 60.712 149.948 60.712C150.528 60.712 151.036 60.85 151.472 61.126C151.912 61.402 152.25 61.784 152.486 62.272C152.726 62.76 152.846 63.312 152.846 63.928V64.162H147.908C147.948 64.582 148.062 64.954 148.25 65.278C148.438 65.602 148.684 65.854 148.988 66.034C149.292 66.214 149.632 66.304 150.008 66.304C150.412 66.304 150.768 66.23 151.076 66.082C151.384 65.934 151.608 65.732 151.748 65.476H152.708C152.636 65.732 152.484 65.988 152.252 66.244C152.024 66.5 151.712 66.714 151.316 66.886C150.924 67.058 150.468 67.144 149.948 67.144ZM151.85 63.37C151.77 62.81 151.566 62.368 151.238 62.044C150.914 61.72 150.488 61.558 149.96 61.558C149.604 61.558 149.284 61.632 149 61.78C148.716 61.924 148.482 62.134 148.298 62.41C148.114 62.682 147.992 63.002 147.932 63.37H151.85ZM156.975 67.144C156.395 67.144 155.871 67.004 155.403 66.724C154.935 66.444 154.567 66.06 154.299 65.572C154.035 65.08 153.903 64.532 153.903 63.928C153.903 63.324 154.035 62.778 154.299 62.29C154.567 61.798 154.935 61.412 155.403 61.132C155.871 60.852 156.395 60.712 156.975 60.712C157.719 60.712 158.343 60.902 158.847 61.282C159.351 61.658 159.673 62.204 159.813 62.92H158.853C158.725 62.48 158.489 62.148 158.145 61.924C157.805 61.696 157.415 61.582 156.975 61.582C156.579 61.582 156.223 61.682 155.907 61.882C155.595 62.082 155.351 62.36 155.175 62.716C154.999 63.072 154.911 63.476 154.911 63.928C154.911 64.376 154.999 64.778 155.175 65.134C155.351 65.49 155.595 65.77 155.907 65.974C156.223 66.174 156.579 66.274 156.975 66.274C157.415 66.274 157.805 66.162 158.145 65.938C158.489 65.71 158.725 65.376 158.853 64.936H159.813C159.721 65.4 159.541 65.798 159.273 66.13C159.005 66.462 158.673 66.714 158.277 66.886C157.881 67.058 157.447 67.144 156.975 67.144ZM163.348 67C163.056 67 162.79 66.938 162.55 66.814C162.314 66.686 162.128 66.512 161.992 66.292C161.856 66.068 161.788 65.82 161.788 65.548L161.782 61.708H160.702L160.708 60.856H161.374C161.526 60.856 161.648 60.808 161.74 60.712C161.836 60.616 161.884 60.494 161.884 60.346V59.356H162.748V60.856H164.23L164.224 61.708H162.742L162.748 65.488C162.748 65.676 162.81 65.834 162.934 65.962C163.062 66.086 163.22 66.148 163.408 66.148H164.224V67H163.348ZM167.926 67.144C167.462 67.144 167.042 67.07 166.666 66.922C166.294 66.774 165.996 66.568 165.772 66.304C165.552 66.036 165.434 65.734 165.418 65.398H166.396C166.412 65.582 166.488 65.748 166.624 65.896C166.76 66.04 166.94 66.154 167.164 66.238C167.388 66.322 167.638 66.364 167.914 66.364C168.194 66.364 168.44 66.318 168.652 66.226C168.868 66.134 169.034 66.006 169.15 65.842C169.27 65.678 169.33 65.492 169.33 65.284C169.33 65.06 169.266 64.872 169.138 64.72C169.014 64.564 168.84 64.466 168.616 64.426L167.134 64.156C166.662 64.068 166.294 63.878 166.03 63.586C165.766 63.29 165.634 62.916 165.634 62.464C165.634 62.14 165.726 61.846 165.91 61.582C166.098 61.314 166.36 61.102 166.696 60.946C167.032 60.79 167.416 60.712 167.848 60.712C168.276 60.712 168.662 60.782 169.006 60.922C169.35 61.062 169.624 61.256 169.828 61.504C170.032 61.752 170.142 62.028 170.158 62.332H169.18C169.168 62.172 169.102 62.028 168.982 61.9C168.866 61.772 168.71 61.672 168.514 61.6C168.318 61.528 168.098 61.492 167.854 61.492C167.606 61.492 167.386 61.534 167.194 61.618C167.002 61.702 166.852 61.818 166.744 61.966C166.64 62.11 166.588 62.274 166.588 62.458C166.588 62.666 166.646 62.838 166.762 62.974C166.878 63.11 167.048 63.198 167.272 63.238L168.79 63.508C169.102 63.564 169.37 63.674 169.594 63.838C169.822 64.002 169.994 64.206 170.11 64.45C170.23 64.694 170.29 64.96 170.29 65.248C170.29 65.608 170.186 65.932 169.978 66.22C169.774 66.508 169.492 66.734 169.132 66.898C168.772 67.062 168.37 67.144 167.926 67.144Z" fill="black"/>
<path d="M433.911 59.6H437.307C437.843 59.6 438.313 59.7 438.717 59.9C439.125 60.1 439.439 60.384 439.659 60.752C439.883 61.12 439.995 61.548 439.995 62.036C439.995 62.524 439.881 62.954 439.653 63.326C439.429 63.694 439.111 63.98 438.699 64.184C438.287 64.384 437.807 64.484 437.259 64.484H434.907V68H433.911V59.6ZM437.307 63.554C437.635 63.554 437.921 63.492 438.165 63.368C438.413 63.244 438.603 63.068 438.735 62.84C438.871 62.612 438.939 62.344 438.939 62.036C438.939 61.732 438.871 61.466 438.735 61.238C438.603 61.01 438.413 60.836 438.165 60.716C437.921 60.592 437.635 60.53 437.307 60.53H434.907V63.554H437.307ZM441.335 61.856H442.295V62.876C442.491 62.528 442.745 62.262 443.057 62.078C443.369 61.89 443.727 61.796 444.131 61.796H444.347V62.798H444.095C443.731 62.798 443.413 62.868 443.141 63.008C442.869 63.148 442.659 63.348 442.511 63.608C442.367 63.864 442.295 64.166 442.295 64.514V68H441.335V61.856ZM445.624 61.856H446.584V68H445.624V61.856ZM446.668 59.6V60.74H445.54V59.6H446.668ZM448.683 61.856H449.607V62.894C449.791 62.514 450.045 62.222 450.369 62.018C450.697 61.814 451.081 61.712 451.521 61.712C451.981 61.712 452.381 61.822 452.721 62.042C453.061 62.262 453.315 62.572 453.483 62.972C453.679 62.572 453.953 62.262 454.305 62.042C454.657 61.822 455.063 61.712 455.523 61.712C455.959 61.712 456.345 61.812 456.681 62.012C457.021 62.208 457.285 62.488 457.473 62.852C457.661 63.216 457.755 63.64 457.755 64.124V68H456.795V64.166C456.795 63.658 456.667 63.258 456.411 62.966C456.159 62.674 455.803 62.528 455.343 62.528C455.015 62.528 454.727 62.604 454.479 62.756C454.231 62.904 454.039 63.116 453.903 63.392C453.767 63.664 453.699 63.986 453.699 64.358V68H452.739V64.166C452.739 63.658 452.611 63.258 452.355 62.966C452.103 62.674 451.747 62.528 451.287 62.528C450.955 62.528 450.665 62.602 450.417 62.75C450.169 62.898 449.977 63.11 449.841 63.386C449.709 63.662 449.643 63.986 449.643 64.358V68H448.683V61.856ZM459.675 61.856H460.635V68H459.675V61.856ZM460.719 59.6V60.74H459.591V59.6H460.719ZM464.708 68C464.416 68 464.15 67.938 463.91 67.814C463.674 67.686 463.488 67.512 463.352 67.292C463.216 67.068 463.148 66.82 463.148 66.548L463.142 62.708H462.062L462.068 61.856H462.734C462.886 61.856 463.008 61.808 463.1 61.712C463.196 61.616 463.244 61.494 463.244 61.346V60.356H464.108V61.856H465.59L465.584 62.708H464.102L464.108 66.488C464.108 66.676 464.17 66.834 464.294 66.962C464.422 67.086 464.58 67.148 464.768 67.148H465.584V68H464.708ZM467.257 61.856H468.217V68H467.257V61.856ZM468.301 59.6V60.74H467.173V59.6H468.301ZM469.518 61.856H470.562L472.434 66.716L474.246 61.856H475.266L472.848 68H471.948L469.518 61.856ZM478.941 68.144C478.365 68.144 477.847 68.006 477.387 67.73C476.927 67.454 476.567 67.072 476.307 66.584C476.051 66.092 475.923 65.536 475.923 64.916C475.923 64.312 476.053 63.766 476.313 63.278C476.577 62.79 476.939 62.408 477.399 62.132C477.859 61.852 478.373 61.712 478.941 61.712C479.521 61.712 480.029 61.85 480.465 62.126C480.905 62.402 481.243 62.784 481.479 63.272C481.719 63.76 481.839 64.312 481.839 64.928V65.162H476.901C476.941 65.582 477.055 65.954 477.243 66.278C477.431 66.602 477.677 66.854 477.981 67.034C478.285 67.214 478.625 67.304 479.001 67.304C479.405 67.304 479.761 67.23 480.069 67.082C480.377 66.934 480.601 66.732 480.741 66.476H481.701C481.629 66.732 481.477 66.988 481.245 67.244C481.017 67.5 480.705 67.714 480.309 67.886C479.917 68.058 479.461 68.144 478.941 68.144ZM480.843 64.37C480.763 63.81 480.559 63.368 480.231 63.044C479.907 62.72 479.481 62.558 478.953 62.558C478.597 62.558 478.277 62.632 477.993 62.78C477.709 62.924 477.475 63.134 477.291 63.41C477.107 63.682 476.985 64.002 476.925 64.37H480.843ZM485.445 68.144C484.981 68.144 484.561 68.07 484.185 67.922C483.813 67.774 483.515 67.568 483.291 67.304C483.071 67.036 482.953 66.734 482.937 66.398H483.915C483.931 66.582 484.007 66.748 484.143 66.896C484.279 67.04 484.459 67.154 484.683 67.238C484.907 67.322 485.157 67.364 485.433 67.364C485.713 67.364 485.959 67.318 486.171 67.226C486.387 67.134 486.553 67.006 486.669 66.842C486.789 66.678 486.849 66.492 486.849 66.284C486.849 66.06 486.785 65.872 486.657 65.72C486.533 65.564 486.359 65.466 486.135 65.426L484.653 65.156C484.181 65.068 483.813 64.878 483.549 64.586C483.285 64.29 483.153 63.916 483.153 63.464C483.153 63.14 483.245 62.846 483.429 62.582C483.617 62.314 483.879 62.102 484.215 61.946C484.551 61.79 484.935 61.712 485.367 61.712C485.795 61.712 486.181 61.782 486.525 61.922C486.869 62.062 487.143 62.256 487.347 62.504C487.551 62.752 487.661 63.028 487.677 63.332H486.699C486.687 63.172 486.621 63.028 486.501 62.9C486.385 62.772 486.229 62.672 486.033 62.6C485.837 62.528 485.617 62.492 485.373 62.492C485.125 62.492 484.905 62.534 484.713 62.618C484.521 62.702 484.371 62.818 484.263 62.966C484.159 63.11 484.107 63.274 484.107 63.458C484.107 63.666 484.165 63.838 484.281 63.974C484.397 64.11 484.567 64.198 484.791 64.238L486.309 64.508C486.621 64.564 486.889 64.674 487.113 64.838C487.341 65.002 487.513 65.206 487.629 65.45C487.749 65.694 487.809 65.96 487.809 66.248C487.809 66.608 487.705 66.932 487.497 67.22C487.293 67.508 487.011 67.734 486.651 67.898C486.291 68.062 485.889 68.144 485.445 68.144Z" fill="black"/>
<path d="M733.566 67.232C734.154 67.232 734.686 67.086 735.162 66.794C735.638 66.498 736.01 66.09 736.278 65.57C736.55 65.046 736.686 64.456 736.686 63.8C736.686 63.14 736.552 62.55 736.284 62.03C736.02 61.506 735.65 61.098 735.174 60.806C734.702 60.514 734.166 60.368 733.566 60.368C732.974 60.368 732.44 60.516 731.964 60.812C731.492 61.104 731.12 61.51 730.848 62.03C730.58 62.55 730.446 63.14 730.446 63.8C730.446 64.46 730.58 65.05 730.848 65.57C731.12 66.09 731.492 66.498 731.964 66.794C732.44 67.086 732.974 67.232 733.566 67.232ZM729.414 63.8C729.414 62.984 729.596 62.246 729.96 61.586C730.324 60.922 730.822 60.402 731.454 60.026C732.086 59.646 732.79 59.456 733.566 59.456C734.338 59.456 735.04 59.646 735.672 60.026C736.308 60.402 736.808 60.922 737.172 61.586C737.536 62.246 737.718 62.984 737.718 63.8C737.718 64.616 737.536 65.356 737.172 66.02C736.808 66.68 736.308 67.2 735.672 67.58C735.04 67.956 734.338 68.144 733.566 68.144C732.79 68.144 732.086 67.956 731.454 67.58C730.822 67.2 730.324 66.68 729.96 66.02C729.596 65.356 729.414 64.616 729.414 63.8ZM744.488 68H743.564V67.004C743.356 67.372 743.078 67.654 742.73 67.85C742.386 68.046 741.986 68.144 741.53 68.144C741.09 68.144 740.7 68.05 740.36 67.862C740.02 67.674 739.752 67.398 739.556 67.034C739.364 66.666 739.268 66.226 739.268 65.714V61.856H740.228V65.618C740.228 66.15 740.366 66.564 740.642 66.86C740.918 67.156 741.298 67.304 741.782 67.304C742.126 67.304 742.43 67.228 742.694 67.076C742.958 66.924 743.162 66.712 743.306 66.44C743.454 66.164 743.528 65.85 743.528 65.498V61.856H744.488V68ZM748.559 68C748.267 68 748.001 67.938 747.761 67.814C747.525 67.686 747.339 67.512 747.203 67.292C747.067 67.068 746.999 66.82 746.999 66.548L746.993 62.708H745.913L745.919 61.856H746.585C746.737 61.856 746.859 61.808 746.951 61.712C747.047 61.616 747.095 61.494 747.095 61.346V60.356H747.959V61.856H749.441L749.435 62.708H747.953L747.959 66.488C747.959 66.676 748.021 66.834 748.145 66.962C748.273 67.086 748.431 67.148 748.619 67.148H749.435V68H748.559ZM752.045 61.856V62.942C752.277 62.554 752.589 62.252 752.981 62.036C753.373 61.82 753.823 61.712 754.331 61.712C754.903 61.712 755.411 61.848 755.855 62.12C756.303 62.388 756.651 62.766 756.899 63.254C757.151 63.742 757.277 64.3 757.277 64.928C757.277 65.556 757.151 66.114 756.899 66.602C756.651 67.09 756.303 67.47 755.855 67.742C755.411 68.01 754.903 68.144 754.331 68.144C753.831 68.144 753.387 68.04 752.999 67.832C752.611 67.624 752.301 67.332 752.069 66.956V69.932H751.109V61.856H752.045ZM752.069 64.928C752.069 65.388 752.157 65.796 752.333 66.152C752.513 66.504 752.763 66.78 753.083 66.98C753.403 67.176 753.769 67.274 754.181 67.274C754.589 67.274 754.951 67.176 755.267 66.98C755.583 66.78 755.829 66.504 756.005 66.152C756.181 65.796 756.269 65.388 756.269 64.928C756.269 64.468 756.181 64.062 756.005 63.71C755.829 63.354 755.583 63.078 755.267 62.882C754.951 62.682 754.589 62.582 754.181 62.582C753.769 62.582 753.403 62.682 753.083 62.882C752.763 63.078 752.513 63.354 752.333 63.71C752.157 64.062 752.069 64.468 752.069 64.928ZM763.895 68H762.971V67.004C762.763 67.372 762.485 67.654 762.137 67.85C761.793 68.046 761.393 68.144 760.937 68.144C760.497 68.144 760.107 68.05 759.767 67.862C759.427 67.674 759.159 67.398 758.963 67.034C758.771 66.666 758.675 66.226 758.675 65.714V61.856H759.635V65.618C759.635 66.15 759.773 66.564 760.049 66.86C760.325 67.156 760.705 67.304 761.189 67.304C761.533 67.304 761.837 67.228 762.101 67.076C762.365 66.924 762.569 66.712 762.713 66.44C762.861 66.164 762.935 65.85 762.935 65.498V61.856H763.895V68ZM767.965 68C767.673 68 767.407 67.938 767.167 67.814C766.931 67.686 766.745 67.512 766.609 67.292C766.473 67.068 766.405 66.82 766.405 66.548L766.399 62.708H765.319L765.325 61.856H765.991C766.143 61.856 766.265 61.808 766.357 61.712C766.453 61.616 766.501 61.494 766.501 61.346V60.356H767.365V61.856H768.847L768.841 62.708H767.359L767.365 66.488C767.365 66.676 767.427 66.834 767.551 66.962C767.679 67.086 767.837 67.148 768.025 67.148H768.841V68H767.965ZM773.96 62.708H772.88V61.856H773.96V61.052C773.96 60.768 774.026 60.516 774.158 60.296C774.29 60.076 774.474 59.906 774.71 59.786C774.946 59.662 775.216 59.6 775.52 59.6H776.504V60.452H775.58C775.384 60.452 775.224 60.514 775.1 60.638C774.98 60.758 774.92 60.916 774.92 61.112V61.856H776.444V62.708H774.92V68H773.96V62.708ZM780.379 68.144C779.795 68.144 779.263 68.006 778.783 67.73C778.307 67.45 777.931 67.066 777.655 66.578C777.383 66.086 777.247 65.536 777.247 64.928C777.247 64.32 777.383 63.772 777.655 63.284C777.931 62.792 778.309 62.408 778.789 62.132C779.269 61.852 779.801 61.712 780.385 61.712C780.969 61.712 781.499 61.852 781.975 62.132C782.451 62.408 782.825 62.79 783.097 63.278C783.373 63.766 783.511 64.316 783.511 64.928C783.511 65.54 783.373 66.09 783.097 66.578C782.825 67.066 782.451 67.45 781.975 67.73C781.499 68.006 780.967 68.144 780.379 68.144ZM778.255 64.928C778.255 65.388 778.347 65.796 778.531 66.152C778.719 66.504 778.975 66.778 779.299 66.974C779.627 67.17 779.991 67.268 780.391 67.268C780.791 67.268 781.151 67.17 781.471 66.974C781.791 66.778 782.043 66.504 782.227 66.152C782.411 65.796 782.503 65.388 782.503 64.928C782.503 64.468 782.411 64.06 782.227 63.704C782.043 63.348 781.789 63.072 781.465 62.876C781.145 62.68 780.785 62.582 780.385 62.582C779.985 62.582 779.623 62.68 779.299 62.876C778.975 63.072 778.719 63.348 778.531 63.704C778.347 64.06 778.255 64.468 778.255 64.928ZM785.093 61.856H786.053V62.876C786.249 62.528 786.503 62.262 786.815 62.078C787.127 61.89 787.485 61.796 787.889 61.796H788.105V62.798H787.853C787.489 62.798 787.171 62.868 786.899 63.008C786.627 63.148 786.417 63.348 786.269 63.608C786.125 63.864 786.053 64.166 786.053 64.514V68H785.093V61.856ZM789.382 61.856H790.306V62.894C790.49 62.514 790.744 62.222 791.068 62.018C791.396 61.814 791.78 61.712 792.22 61.712C792.68 61.712 793.08 61.822 793.42 62.042C793.76 62.262 794.014 62.572 794.182 62.972C794.378 62.572 794.652 62.262 795.004 62.042C795.356 61.822 795.762 61.712 796.222 61.712C796.658 61.712 797.044 61.812 797.38 62.012C797.72 62.208 797.984 62.488 798.172 62.852C798.36 63.216 798.454 63.64 798.454 64.124V68H797.494V64.166C797.494 63.658 797.366 63.258 797.11 62.966C796.858 62.674 796.502 62.528 796.042 62.528C795.714 62.528 795.426 62.604 795.178 62.756C794.93 62.904 794.738 63.116 794.602 63.392C794.466 63.664 794.398 63.986 794.398 64.358V68H793.438V64.166C793.438 63.658 793.31 63.258 793.054 62.966C792.802 62.674 792.446 62.528 791.986 62.528C791.654 62.528 791.364 62.602 791.116 62.75C790.868 62.898 790.676 63.11 790.54 63.386C790.408 63.662 790.342 63.986 790.342 64.358V68H789.382V61.856ZM802.54 61.712C803.004 61.712 803.412 61.798 803.764 61.97C804.116 62.138 804.388 62.386 804.58 62.714C804.776 63.038 804.874 63.424 804.874 63.872V68H803.938V66.998C803.766 67.37 803.514 67.654 803.182 67.85C802.85 68.046 802.456 68.144 802 68.144C801.608 68.144 801.254 68.068 800.938 67.916C800.622 67.764 800.374 67.554 800.194 67.286C800.014 67.018 799.924 66.714 799.924 66.374C799.924 66.054 800.006 65.76 800.17 65.492C800.338 65.22 800.568 64.998 800.86 64.826C801.156 64.654 801.488 64.548 801.856 64.508L803.494 64.328C803.63 64.312 803.736 64.256 803.812 64.16C803.888 64.064 803.926 63.924 803.926 63.74C803.926 63.496 803.868 63.282 803.752 63.098C803.636 62.914 803.472 62.772 803.26 62.672C803.052 62.568 802.81 62.516 802.534 62.516C802.258 62.516 802.01 62.564 801.79 62.66C801.57 62.752 801.392 62.878 801.256 63.038C801.124 63.194 801.044 63.364 801.016 63.548H800.056C800.104 63.2 800.24 62.888 800.464 62.612C800.692 62.332 800.986 62.112 801.346 61.952C801.706 61.792 802.104 61.712 802.54 61.712ZM800.92 66.32C800.92 66.528 800.974 66.712 801.082 66.872C801.194 67.032 801.348 67.158 801.544 67.25C801.74 67.338 801.964 67.382 802.216 67.382C802.56 67.382 802.86 67.312 803.116 67.172C803.376 67.032 803.576 66.836 803.716 66.584C803.856 66.328 803.926 66.034 803.926 65.702V65L801.988 65.216C801.668 65.252 801.41 65.372 801.214 65.576C801.018 65.78 800.92 66.028 800.92 66.32ZM808.77 68C808.478 68 808.212 67.938 807.972 67.814C807.736 67.686 807.55 67.512 807.414 67.292C807.278 67.068 807.21 66.82 807.21 66.548L807.204 62.708H806.124L806.13 61.856H806.796C806.948 61.856 807.07 61.808 807.162 61.712C807.258 61.616 807.306 61.494 807.306 61.346V60.356H808.17V61.856H809.652L809.646 62.708H808.164L808.17 66.488C808.17 66.676 808.232 66.834 808.356 66.962C808.484 67.086 808.642 67.148 808.83 67.148H809.646V68H808.77Z" fill="black"/>
<path d="M271.004 47.144C270.428 47.144 269.918 47.038 269.474 46.826C269.034 46.614 268.69 46.318 268.442 45.938C268.198 45.558 268.076 45.122 268.076 44.63H269.096C269.096 44.946 269.176 45.226 269.336 45.47C269.496 45.714 269.722 45.904 270.014 46.04C270.306 46.176 270.64 46.244 271.016 46.244C271.388 46.244 271.714 46.182 271.994 46.058C272.278 45.93 272.496 45.752 272.648 45.524C272.804 45.292 272.882 45.026 272.882 44.726C272.882 44.346 272.768 44.02 272.54 43.748C272.316 43.476 272.016 43.308 271.64 43.244L270.284 43.01C269.876 42.938 269.522 42.796 269.222 42.584C268.922 42.372 268.692 42.108 268.532 41.792C268.372 41.476 268.292 41.132 268.292 40.76C268.292 40.324 268.406 39.932 268.634 39.584C268.866 39.232 269.186 38.956 269.594 38.756C270.006 38.556 270.468 38.456 270.98 38.456C271.508 38.456 271.978 38.556 272.39 38.756C272.802 38.952 273.122 39.226 273.35 39.578C273.578 39.93 273.692 40.332 273.692 40.784H272.672C272.672 40.508 272.602 40.262 272.462 40.046C272.322 39.826 272.124 39.656 271.868 39.536C271.616 39.416 271.324 39.356 270.992 39.356C270.66 39.356 270.366 39.414 270.11 39.53C269.854 39.646 269.654 39.81 269.51 40.022C269.37 40.234 269.3 40.48 269.3 40.76C269.3 41.092 269.406 41.378 269.618 41.618C269.834 41.858 270.116 42.008 270.464 42.068L271.844 42.308C272.244 42.38 272.6 42.534 272.912 42.77C273.224 43.006 273.466 43.296 273.638 43.64C273.81 43.98 273.896 44.338 273.896 44.714C273.896 45.166 273.774 45.578 273.53 45.95C273.286 46.318 272.944 46.61 272.504 46.826C272.064 47.038 271.564 47.144 271.004 47.144ZM278.169 47.144C277.593 47.144 277.075 47.006 276.615 46.73C276.155 46.454 275.795 46.072 275.535 45.584C275.279 45.092 275.151 44.536 275.151 43.916C275.151 43.312 275.281 42.766 275.541 42.278C275.805 41.79 276.167 41.408 276.627 41.132C277.087 40.852 277.601 40.712 278.169 40.712C278.749 40.712 279.257 40.85 279.693 41.126C280.133 41.402 280.471 41.784 280.707 42.272C280.947 42.76 281.067 43.312 281.067 43.928V44.162H276.129C276.169 44.582 276.283 44.954 276.471 45.278C276.659 45.602 276.905 45.854 277.209 46.034C277.513 46.214 277.853 46.304 278.229 46.304C278.633 46.304 278.989 46.23 279.297 46.082C279.605 45.934 279.829 45.732 279.969 45.476H280.929C280.857 45.732 280.705 45.988 280.473 46.244C280.245 46.5 279.933 46.714 279.537 46.886C279.145 47.058 278.689 47.144 278.169 47.144ZM280.071 43.37C279.991 42.81 279.787 42.368 279.459 42.044C279.135 41.72 278.709 41.558 278.181 41.558C277.825 41.558 277.505 41.632 277.221 41.78C276.937 41.924 276.703 42.134 276.519 42.41C276.335 42.682 276.213 43.002 276.153 43.37H280.071ZM282.646 40.856H283.606V41.876C283.802 41.528 284.056 41.262 284.368 41.078C284.68 40.89 285.038 40.796 285.442 40.796H285.658V41.798H285.406C285.042 41.798 284.724 41.868 284.452 42.008C284.18 42.148 283.97 42.348 283.822 42.608C283.678 42.864 283.606 43.166 283.606 43.514V47H282.646V40.856ZM286.935 40.856H287.895V47H286.935V40.856ZM287.979 38.6V39.74H286.851V38.6H287.979ZM292.159 40.712C292.623 40.712 293.031 40.798 293.383 40.97C293.735 41.138 294.007 41.386 294.199 41.714C294.395 42.038 294.493 42.424 294.493 42.872V47H293.557V45.998C293.385 46.37 293.133 46.654 292.801 46.85C292.469 47.046 292.075 47.144 291.619 47.144C291.227 47.144 290.873 47.068 290.557 46.916C290.241 46.764 289.993 46.554 289.813 46.286C289.633 46.018 289.543 45.714 289.543 45.374C289.543 45.054 289.625 44.76 289.789 44.492C289.957 44.22 290.187 43.998 290.479 43.826C290.775 43.654 291.107 43.548 291.475 43.508L293.113 43.328C293.249 43.312 293.355 43.256 293.431 43.16C293.507 43.064 293.545 42.924 293.545 42.74C293.545 42.496 293.487 42.282 293.371 42.098C293.255 41.914 293.091 41.772 292.879 41.672C292.671 41.568 292.429 41.516 292.153 41.516C291.877 41.516 291.629 41.564 291.409 41.66C291.189 41.752 291.011 41.878 290.875 42.038C290.743 42.194 290.663 42.364 290.635 42.548H289.675C289.723 42.2 289.859 41.888 290.083 41.612C290.311 41.332 290.605 41.112 290.965 40.952C291.325 40.792 291.723 40.712 292.159 40.712ZM290.539 45.32C290.539 45.528 290.593 45.712 290.701 45.872C290.813 46.032 290.967 46.158 291.163 46.25C291.359 46.338 291.583 46.382 291.835 46.382C292.179 46.382 292.479 46.312 292.735 46.172C292.995 46.032 293.195 45.836 293.335 45.584C293.475 45.328 293.545 45.034 293.545 44.702V44L291.607 44.216C291.287 44.252 291.029 44.372 290.833 44.576C290.637 44.78 290.539 45.028 290.539 45.32ZM296.415 38.6H297.375V47H296.415V38.6ZM299.474 40.856H300.434V47H299.474V40.856ZM300.518 38.6V39.74H299.39V38.6H300.518ZM305.466 41.708H302.166V40.856H306.594V41.684L303.138 46.148H306.582V47H302.01V46.172L305.466 41.708ZM310.335 40.712C310.799 40.712 311.207 40.798 311.559 40.97C311.911 41.138 312.183 41.386 312.375 41.714C312.571 42.038 312.669 42.424 312.669 42.872V47H311.733V45.998C311.561 46.37 311.309 46.654 310.977 46.85C310.645 47.046 310.251 47.144 309.795 47.144C309.403 47.144 309.049 47.068 308.733 46.916C308.417 46.764 308.169 46.554 307.989 46.286C307.809 46.018 307.719 45.714 307.719 45.374C307.719 45.054 307.801 44.76 307.965 44.492C308.133 44.22 308.363 43.998 308.655 43.826C308.951 43.654 309.283 43.548 309.651 43.508L311.289 43.328C311.425 43.312 311.531 43.256 311.607 43.16C311.683 43.064 311.721 42.924 311.721 42.74C311.721 42.496 311.663 42.282 311.547 42.098C311.431 41.914 311.267 41.772 311.055 41.672C310.847 41.568 310.605 41.516 310.329 41.516C310.053 41.516 309.805 41.564 309.585 41.66C309.365 41.752 309.187 41.878 309.051 42.038C308.919 42.194 308.839 42.364 308.811 42.548H307.851C307.899 42.2 308.035 41.888 308.259 41.612C308.487 41.332 308.781 41.112 309.141 40.952C309.501 40.792 309.899 40.712 310.335 40.712ZM308.715 45.32C308.715 45.528 308.769 45.712 308.877 45.872C308.989 46.032 309.143 46.158 309.339 46.25C309.535 46.338 309.759 46.382 310.011 46.382C310.355 46.382 310.655 46.312 310.911 46.172C311.171 46.032 311.371 45.836 311.511 45.584C311.651 45.328 311.721 45.034 311.721 44.702V44L309.783 44.216C309.463 44.252 309.205 44.372 309.009 44.576C308.813 44.78 308.715 45.028 308.715 45.32ZM316.565 47C316.273 47 316.007 46.938 315.767 46.814C315.531 46.686 315.345 46.512 315.209 46.292C315.073 46.068 315.005 45.82 315.005 45.548L314.999 41.708H313.919L313.925 40.856H314.591C314.743 40.856 314.865 40.808 314.957 40.712C315.053 40.616 315.101 40.494 315.101 40.346V39.356H315.965V40.856H317.447L317.441 41.708H315.959L315.965 45.488C315.965 45.676 316.027 45.834 316.151 45.962C316.279 46.086 316.437 46.148 316.625 46.148H317.441V47H316.565ZM319.114 40.856H320.074V47H319.114V40.856ZM320.158 38.6V39.74H319.03V38.6H320.158ZM324.783 47.144C324.199 47.144 323.667 47.006 323.187 46.73C322.711 46.45 322.335 46.066 322.059 45.578C321.787 45.086 321.651 44.536 321.651 43.928C321.651 43.32 321.787 42.772 322.059 42.284C322.335 41.792 322.713 41.408 323.193 41.132C323.673 40.852 324.205 40.712 324.789 40.712C325.373 40.712 325.903 40.852 326.379 41.132C326.855 41.408 327.229 41.79 327.501 42.278C327.777 42.766 327.915 43.316 327.915 43.928C327.915 44.54 327.777 45.09 327.501 45.578C327.229 46.066 326.855 46.45 326.379 46.73C325.903 47.006 325.371 47.144 324.783 47.144ZM322.659 43.928C322.659 44.388 322.751 44.796 322.935 45.152C323.123 45.504 323.379 45.778 323.703 45.974C324.031 46.17 324.395 46.268 324.795 46.268C325.195 46.268 325.555 46.17 325.875 45.974C326.195 45.778 326.447 45.504 326.631 45.152C326.815 44.796 326.907 44.388 326.907 43.928C326.907 43.468 326.815 43.06 326.631 42.704C326.447 42.348 326.193 42.072 325.869 41.876C325.549 41.68 325.189 41.582 324.789 41.582C324.389 41.582 324.027 41.68 323.703 41.876C323.379 42.072 323.123 42.348 322.935 42.704C322.751 43.06 322.659 43.468 322.659 43.928ZM329.497 40.856H330.421V41.852C330.629 41.484 330.905 41.202 331.249 41.006C331.597 40.81 331.999 40.712 332.455 40.712C332.895 40.712 333.285 40.806 333.625 40.994C333.965 41.182 334.231 41.46 334.423 41.828C334.619 42.192 334.717 42.63 334.717 43.142V47H333.757V43.238C333.757 42.706 333.619 42.292 333.343 41.996C333.067 41.7 332.687 41.552 332.203 41.552C331.859 41.552 331.555 41.628 331.291 41.78C331.027 41.932 330.821 42.146 330.673 42.422C330.529 42.694 330.457 43.006 330.457 43.358V47H329.497V40.856Z" fill="black"/>
<path d="M589.462 38.6H595.27V39.53H590.434V42.302H594.862V43.226H590.434V46.07H595.39V47H589.462V38.6ZM597.179 40.856H598.103V41.852C598.311 41.484 598.587 41.202 598.931 41.006C599.279 40.81 599.681 40.712 600.137 40.712C600.577 40.712 600.967 40.806 601.307 40.994C601.647 41.182 601.913 41.46 602.105 41.828C602.301 42.192 602.399 42.63 602.399 43.142V47H601.439V43.238C601.439 42.706 601.301 42.292 601.025 41.996C600.749 41.7 600.369 41.552 599.885 41.552C599.541 41.552 599.237 41.628 598.973 41.78C598.709 41.932 598.503 42.146 598.355 42.422C598.211 42.694 598.139 43.006 598.139 43.358V47H597.179V40.856ZM606.866 47.144C606.286 47.144 605.762 47.004 605.294 46.724C604.826 46.444 604.458 46.06 604.19 45.572C603.926 45.08 603.794 44.532 603.794 43.928C603.794 43.324 603.926 42.778 604.19 42.29C604.458 41.798 604.826 41.412 605.294 41.132C605.762 40.852 606.286 40.712 606.866 40.712C607.61 40.712 608.234 40.902 608.738 41.282C609.242 41.658 609.564 42.204 609.704 42.92H608.744C608.616 42.48 608.38 42.148 608.036 41.924C607.696 41.696 607.306 41.582 606.866 41.582C606.47 41.582 606.114 41.682 605.798 41.882C605.486 42.082 605.242 42.36 605.066 42.716C604.89 43.072 604.802 43.476 604.802 43.928C604.802 44.376 604.89 44.778 605.066 45.134C605.242 45.49 605.486 45.77 605.798 45.974C606.114 46.174 606.47 46.274 606.866 46.274C607.306 46.274 607.696 46.162 608.036 45.938C608.38 45.71 608.616 45.376 608.744 44.936H609.704C609.612 45.4 609.432 45.798 609.164 46.13C608.896 46.462 608.564 46.714 608.168 46.886C607.772 47.058 607.338 47.144 606.866 47.144ZM613.875 47.144C613.291 47.144 612.759 47.006 612.279 46.73C611.803 46.45 611.427 46.066 611.151 45.578C610.879 45.086 610.743 44.536 610.743 43.928C610.743 43.32 610.879 42.772 611.151 42.284C611.427 41.792 611.805 41.408 612.285 41.132C612.765 40.852 613.297 40.712 613.881 40.712C614.465 40.712 614.995 40.852 615.471 41.132C615.947 41.408 616.321 41.79 616.593 42.278C616.869 42.766 617.007 43.316 617.007 43.928C617.007 44.54 616.869 45.09 616.593 45.578C616.321 46.066 615.947 46.45 615.471 46.73C614.995 47.006 614.463 47.144 613.875 47.144ZM611.751 43.928C611.751 44.388 611.843 44.796 612.027 45.152C612.215 45.504 612.471 45.778 612.795 45.974C613.123 46.17 613.487 46.268 613.887 46.268C614.287 46.268 614.647 46.17 614.967 45.974C615.287 45.778 615.539 45.504 615.723 45.152C615.907 44.796 615.999 44.388 615.999 43.928C615.999 43.468 615.907 43.06 615.723 42.704C615.539 42.348 615.285 42.072 614.961 41.876C614.641 41.68 614.281 41.582 613.881 41.582C613.481 41.582 613.119 41.68 612.795 41.876C612.471 42.072 612.215 42.348 612.027 42.704C611.843 43.06 611.751 43.468 611.751 43.928ZM623.257 45.98C623.025 46.352 622.715 46.64 622.327 46.844C621.943 47.044 621.505 47.144 621.013 47.144C620.441 47.144 619.931 47.01 619.483 46.742C619.039 46.47 618.691 46.09 618.439 45.602C618.191 45.114 618.067 44.556 618.067 43.928C618.067 43.3 618.191 42.742 618.439 42.254C618.691 41.766 619.039 41.388 619.483 41.12C619.931 40.848 620.441 40.712 621.013 40.712C621.505 40.712 621.943 40.814 622.327 41.018C622.715 41.218 623.025 41.504 623.257 41.876V38.6H624.217V47H623.257V45.98ZM619.075 43.928C619.075 44.388 619.163 44.796 619.339 45.152C619.515 45.504 619.761 45.78 620.077 45.98C620.393 46.176 620.755 46.274 621.163 46.274C621.539 46.274 621.877 46.192 622.177 46.028C622.481 45.86 622.725 45.626 622.909 45.326C623.097 45.022 623.213 44.67 623.257 44.27V43.586C623.213 43.186 623.097 42.836 622.909 42.536C622.725 42.232 622.481 41.998 622.177 41.834C621.877 41.666 621.539 41.582 621.163 41.582C620.755 41.582 620.393 41.682 620.077 41.882C619.761 42.078 619.515 42.354 619.339 42.71C619.163 43.062 619.075 43.468 619.075 43.928ZM626.23 40.856H627.19V47H626.23V40.856ZM627.274 38.6V39.74H626.146V38.6H627.274ZM629.288 40.856H630.212V41.852C630.42 41.484 630.696 41.202 631.04 41.006C631.388 40.81 631.79 40.712 632.246 40.712C632.686 40.712 633.076 40.806 633.416 40.994C633.756 41.182 634.022 41.46 634.214 41.828C634.41 42.192 634.508 42.63 634.508 43.142V47H633.548V43.238C633.548 42.706 633.41 42.292 633.134 41.996C632.858 41.7 632.478 41.552 631.994 41.552C631.65 41.552 631.346 41.628 631.082 41.78C630.818 41.932 630.612 42.146 630.464 42.422C630.32 42.694 630.248 43.006 630.248 43.358V47H629.288V40.856ZM638.891 49.064C638.443 49.064 638.029 48.994 637.649 48.854C637.269 48.714 636.953 48.516 636.701 48.26C636.449 48.004 636.287 47.708 636.215 47.372H637.175C637.303 47.648 637.521 47.858 637.829 48.002C638.141 48.15 638.485 48.224 638.861 48.224C639.253 48.224 639.595 48.144 639.887 47.984C640.183 47.828 640.411 47.608 640.571 47.324C640.731 47.04 640.811 46.712 640.811 46.34V46.088L640.829 45.47C640.589 45.81 640.283 46.074 639.911 46.262C639.543 46.45 639.137 46.544 638.693 46.544C638.173 46.544 637.703 46.42 637.283 46.172C636.863 45.92 636.533 45.574 636.293 45.134C636.053 44.69 635.933 44.19 635.933 43.634C635.933 43.078 636.053 42.578 636.293 42.134C636.533 41.69 636.863 41.342 637.283 41.09C637.703 40.838 638.173 40.712 638.693 40.712C639.145 40.712 639.559 40.812 639.935 41.012C640.311 41.208 640.619 41.484 640.859 41.84V40.856H641.789L641.771 46.34C641.771 46.872 641.651 47.344 641.411 47.756C641.171 48.172 640.833 48.494 640.397 48.722C639.961 48.95 639.459 49.064 638.891 49.064ZM636.941 43.634C636.941 44.022 637.023 44.374 637.187 44.69C637.355 45.006 637.587 45.254 637.883 45.434C638.179 45.614 638.511 45.704 638.879 45.704C639.243 45.704 639.571 45.614 639.863 45.434C640.159 45.254 640.393 45.006 640.565 44.69C640.737 44.374 640.823 44.022 640.823 43.634C640.823 43.242 640.737 42.888 640.565 42.572C640.393 42.256 640.159 42.008 639.863 41.828C639.571 41.644 639.243 41.552 638.879 41.552C638.511 41.552 638.179 41.644 637.883 41.828C637.587 42.008 637.355 42.256 637.187 42.572C637.023 42.888 636.941 43.242 636.941 43.634Z" fill="black"/>
</svg>
