<svg width="600" height="61" viewBox="0 0 600 61" fill="none" xmlns="http://www.w3.org/2000/svg">
<rect width="600" height="61" fill="white"/>
<rect x="15.5709" y="8" width="569.896" height="46" rx="23" fill="black"/>
<path d="M39.3354 40.36C37.4454 40.36 35.7304 39.89 34.1904 38.95C32.6604 38 31.4554 36.7 30.5754 35.05C29.6954 33.39 29.2554 31.54 29.2554 29.5C29.2554 27.46 29.6954 25.615 30.5754 23.965C31.4554 22.305 32.6604 21.005 34.1904 20.065C35.7304 19.115 37.4454 18.64 39.3354 18.64C40.9154 18.64 42.3904 18.97 43.7604 19.63C45.1404 20.29 46.2704 21.185 47.1504 22.315C48.0404 23.445 48.5754 24.68 48.7554 26.02H46.2954C46.1154 25.07 45.6904 24.205 45.0204 23.425C44.3604 22.635 43.5304 22.01 42.5304 21.55C41.5404 21.09 40.4754 20.86 39.3354 20.86C37.8954 20.86 36.6004 21.23 35.4504 21.97C34.3004 22.71 33.4004 23.735 32.7504 25.045C32.1004 26.355 31.7754 27.84 31.7754 29.5C31.7754 31.16 32.1004 32.645 32.7504 33.955C33.4004 35.265 34.3004 36.29 35.4504 37.03C36.6004 37.77 37.8954 38.14 39.3354 38.14C40.6554 38.14 41.8454 37.87 42.9054 37.33C43.9754 36.79 44.8204 36.04 45.4404 35.08C46.0604 34.11 46.3804 33.02 46.4004 31.81V31.63H40.8504V29.38H48.9204V30.91C48.9204 32.68 48.5004 34.285 47.6604 35.725C46.8304 37.165 45.6854 38.3 44.2254 39.13C42.7654 39.95 41.1354 40.36 39.3354 40.36ZM60.4338 40.36C58.9938 40.36 57.6988 40.015 56.5488 39.325C55.3988 38.635 54.4988 37.68 53.8488 36.46C53.2088 35.23 52.8888 33.84 52.8888 32.29C52.8888 30.78 53.2138 29.415 53.8638 28.195C54.5238 26.975 55.4288 26.02 56.5788 25.33C57.7288 24.63 59.0138 24.28 60.4338 24.28C61.8838 24.28 63.1538 24.625 64.2438 25.315C65.3438 26.005 66.1888 26.96 66.7788 28.18C67.3788 29.4 67.6788 30.78 67.6788 32.32V32.905H55.3338C55.4338 33.955 55.7188 34.885 56.1888 35.695C56.6588 36.505 57.2738 37.135 58.0338 37.585C58.7938 38.035 59.6438 38.26 60.5838 38.26C61.5938 38.26 62.4838 38.075 63.2538 37.705C64.0238 37.335 64.5838 36.83 64.9338 36.19H67.3338C67.1538 36.83 66.7738 37.47 66.1938 38.11C65.6238 38.75 64.8438 39.285 63.8538 39.715C62.8738 40.145 61.7338 40.36 60.4338 40.36ZM65.1888 30.925C64.9888 29.525 64.4788 28.42 63.6588 27.61C62.8488 26.8 61.7838 26.395 60.4638 26.395C59.5738 26.395 58.7738 26.58 58.0638 26.95C57.3538 27.31 56.7688 27.835 56.3088 28.525C55.8488 29.205 55.5438 30.005 55.3938 30.925H65.1888ZM76.5605 40C75.8305 40 75.1655 39.845 74.5655 39.535C73.9755 39.215 73.5105 38.78 73.1705 38.23C72.8305 37.67 72.6605 37.05 72.6605 36.37L72.6455 26.77H69.9455L69.9605 24.64H71.6255C72.0055 24.64 72.3105 24.52 72.5405 24.28C72.7805 24.04 72.9005 23.735 72.9005 23.365V20.89H75.0605V24.64H78.7655L78.7505 26.77H75.0455L75.0605 36.22C75.0605 36.69 75.2155 37.085 75.5255 37.405C75.8455 37.715 76.2405 37.87 76.7105 37.87H78.7505V40H76.5605ZM95.4162 40.36C94.2562 40.36 93.2062 40.175 92.2662 39.805C91.3362 39.435 90.5912 38.92 90.0312 38.26C89.4812 37.59 89.1862 36.835 89.1462 35.995H91.5912C91.6312 36.455 91.8212 36.87 92.1612 37.24C92.5012 37.6 92.9512 37.885 93.5112 38.095C94.0712 38.305 94.6962 38.41 95.3862 38.41C96.0862 38.41 96.7012 38.295 97.2312 38.065C97.7712 37.835 98.1862 37.515 98.4762 37.105C98.7762 36.695 98.9262 36.23 98.9262 35.71C98.9262 35.15 98.7662 34.68 98.4462 34.3C98.1362 33.91 97.7012 33.665 97.1412 33.565L93.4362 32.89C92.2562 32.67 91.3362 32.195 90.6762 31.465C90.0162 30.725 89.6862 29.79 89.6862 28.66C89.6862 27.85 89.9162 27.115 90.3762 26.455C90.8462 25.785 91.5012 25.255 92.3412 24.865C93.1812 24.475 94.1412 24.28 95.2212 24.28C96.2912 24.28 97.2562 24.455 98.1162 24.805C98.9762 25.155 99.6612 25.64 100.171 26.26C100.681 26.88 100.956 27.57 100.996 28.33H98.5512C98.5212 27.93 98.3562 27.57 98.0562 27.25C97.7662 26.93 97.3762 26.68 96.8862 26.5C96.3962 26.32 95.8462 26.23 95.2362 26.23C94.6162 26.23 94.0662 26.335 93.5862 26.545C93.1062 26.755 92.7312 27.045 92.4612 27.415C92.2012 27.775 92.0712 28.185 92.0712 28.645C92.0712 29.165 92.2162 29.595 92.5062 29.935C92.7962 30.275 93.2212 30.495 93.7812 30.595L97.5762 31.27C98.3562 31.41 99.0262 31.685 99.5862 32.095C100.156 32.505 100.586 33.015 100.876 33.625C101.176 34.235 101.326 34.9 101.326 35.62C101.326 36.52 101.066 37.33 100.546 38.05C100.036 38.77 99.3312 39.335 98.4312 39.745C97.5312 40.155 96.5262 40.36 95.4162 40.36ZM110.31 40C109.58 40 108.915 39.845 108.315 39.535C107.725 39.215 107.26 38.78 106.92 38.23C106.58 37.67 106.41 37.05 106.41 36.37L106.395 26.77H103.695L103.71 24.64H105.375C105.755 24.64 106.06 24.52 106.29 24.28C106.53 24.04 106.65 23.735 106.65 23.365V20.89H108.81V24.64H112.515L112.5 26.77H108.795L108.81 36.22C108.81 36.69 108.965 37.085 109.275 37.405C109.595 37.715 109.99 37.87 110.46 37.87H112.5V40H110.31ZM122.099 24.28C123.259 24.28 124.279 24.495 125.159 24.925C126.039 25.345 126.719 25.965 127.199 26.785C127.689 27.595 127.934 28.56 127.934 29.68V40H125.594V37.495C125.164 38.425 124.534 39.135 123.704 39.625C122.874 40.115 121.889 40.36 120.749 40.36C119.769 40.36 118.884 40.17 118.094 39.79C117.304 39.41 116.684 38.885 116.234 38.215C115.784 37.545 115.559 36.785 115.559 35.935C115.559 35.135 115.764 34.4 116.174 33.73C116.594 33.05 117.169 32.495 117.899 32.065C118.639 31.635 119.469 31.37 120.389 31.27L124.484 30.82C124.824 30.78 125.089 30.64 125.279 30.4C125.469 30.16 125.564 29.81 125.564 29.35C125.564 28.74 125.419 28.205 125.129 27.745C124.839 27.285 124.429 26.93 123.899 26.68C123.379 26.42 122.774 26.29 122.084 26.29C121.394 26.29 120.774 26.41 120.224 26.65C119.674 26.88 119.229 27.195 118.889 27.595C118.559 27.985 118.359 28.41 118.289 28.87H115.889C116.009 28 116.349 27.22 116.909 26.53C117.479 25.83 118.214 25.28 119.114 24.88C120.014 24.48 121.009 24.28 122.099 24.28ZM118.049 35.8C118.049 36.32 118.184 36.78 118.454 37.18C118.734 37.58 119.119 37.895 119.609 38.125C120.099 38.345 120.659 38.455 121.289 38.455C122.149 38.455 122.899 38.28 123.539 37.93C124.189 37.58 124.689 37.09 125.039 36.46C125.389 35.82 125.564 35.085 125.564 34.255V32.5L120.719 33.04C119.919 33.13 119.274 33.43 118.784 33.94C118.294 34.45 118.049 35.07 118.049 35.8ZM132.739 24.64H135.139V27.19C135.629 26.32 136.264 25.655 137.044 25.195C137.824 24.725 138.719 24.49 139.729 24.49H140.269V26.995H139.639C138.729 26.995 137.934 27.17 137.254 27.52C136.574 27.87 136.049 28.37 135.679 29.02C135.319 29.66 135.139 30.415 135.139 31.285V40H132.739V24.64ZM146.926 40C145.796 40 144.911 39.705 144.271 39.115C143.641 38.525 143.326 37.71 143.326 36.67V20.8H145.726V24.64H149.341L149.326 26.77H145.711L145.726 36.52C145.726 36.94 145.846 37.27 146.086 37.51C146.326 37.75 146.656 37.87 147.076 37.87H149.326V40H146.926ZM159.516 40.36C158.076 40.36 156.781 40.015 155.631 39.325C154.481 38.635 153.581 37.68 152.931 36.46C152.291 35.23 151.971 33.84 151.971 32.29C151.971 30.78 152.296 29.415 152.946 28.195C153.606 26.975 154.511 26.02 155.661 25.33C156.811 24.63 158.096 24.28 159.516 24.28C160.966 24.28 162.236 24.625 163.326 25.315C164.426 26.005 165.271 26.96 165.861 28.18C166.461 29.4 166.761 30.78 166.761 32.32V32.905H154.416C154.516 33.955 154.801 34.885 155.271 35.695C155.741 36.505 156.356 37.135 157.116 37.585C157.876 38.035 158.726 38.26 159.666 38.26C160.676 38.26 161.566 38.075 162.336 37.705C163.106 37.335 163.666 36.83 164.016 36.19H166.416C166.236 36.83 165.856 37.47 165.276 38.11C164.706 38.75 163.926 39.285 162.936 39.715C161.956 40.145 160.816 40.36 159.516 40.36ZM164.271 30.925C164.071 29.525 163.561 28.42 162.741 27.61C161.931 26.8 160.866 26.395 159.546 26.395C158.656 26.395 157.856 26.58 157.146 26.95C156.436 27.31 155.851 27.835 155.391 28.525C154.931 29.205 154.626 30.005 154.476 30.925H164.271ZM182.377 37.45C181.797 38.38 181.022 39.1 180.052 39.61C179.092 40.11 177.997 40.36 176.767 40.36C175.337 40.36 174.062 40.025 172.942 39.355C171.832 38.675 170.962 37.725 170.332 36.505C169.712 35.285 169.402 33.89 169.402 32.32C169.402 30.75 169.712 29.355 170.332 28.135C170.962 26.915 171.832 25.97 172.942 25.3C174.062 24.62 175.337 24.28 176.767 24.28C177.997 24.28 179.092 24.535 180.052 25.045C181.022 25.545 181.797 26.26 182.377 27.19V19H184.777V40H182.377V37.45ZM171.922 32.32C171.922 33.47 172.142 34.49 172.582 35.38C173.022 36.26 173.637 36.95 174.427 37.45C175.217 37.94 176.122 38.185 177.142 38.185C178.082 38.185 178.927 37.98 179.677 37.57C180.437 37.15 181.047 36.565 181.507 35.815C181.977 35.055 182.267 34.175 182.377 33.175V31.465C182.267 30.465 181.977 29.59 181.507 28.84C181.047 28.08 180.437 27.495 179.677 27.085C178.927 26.665 178.082 26.455 177.142 26.455C176.122 26.455 175.217 26.705 174.427 27.205C173.637 27.695 173.022 28.385 172.582 29.275C172.142 30.155 171.922 31.17 171.922 32.32ZM194.935 24.64H197.515L201.13 35.68L201.475 36.985L201.79 35.68L205.585 24.64H207.88L211.75 35.68L212.095 36.985L212.41 35.68L215.935 24.64H218.455L213.19 40H210.82L207.025 28.45L206.74 27.385L206.485 28.42L202.54 40H200.2L194.935 24.64ZM221.801 24.64H224.201V40H221.801V24.64ZM224.411 19V21.85H221.591V19H224.411ZM234.383 40C233.653 40 232.988 39.845 232.388 39.535C231.798 39.215 231.333 38.78 230.993 38.23C230.653 37.67 230.483 37.05 230.483 36.37L230.468 26.77H227.768L227.783 24.64H229.448C229.828 24.64 230.133 24.52 230.363 24.28C230.603 24.04 230.723 23.735 230.723 23.365V20.89H232.883V24.64H236.588L236.573 26.77H232.868L232.883 36.22C232.883 36.69 233.038 37.085 233.348 37.405C233.668 37.715 234.063 37.87 234.533 37.87H236.573V40H234.383ZM240.756 19H243.066V27.13C243.586 26.21 244.276 25.505 245.136 25.015C246.006 24.525 247.011 24.28 248.151 24.28C249.251 24.28 250.226 24.515 251.076 24.985C251.926 25.455 252.591 26.15 253.071 27.07C253.561 27.98 253.806 29.075 253.806 30.355V40H251.406V30.595C251.406 29.265 251.061 28.23 250.371 27.49C249.681 26.75 248.731 26.38 247.521 26.38C246.661 26.38 245.901 26.57 245.241 26.95C244.581 27.33 244.066 27.865 243.696 28.555C243.336 29.235 243.156 30.015 243.156 30.895V40H240.756V19ZM276.675 29.35L287.4 40H266.385V19H287.4L276.675 29.35ZM295.438 19H297.838V28.84L307.678 19H310.948L300.763 29.14L311.128 40H307.768L297.838 29.62V40H295.438V19ZM319.557 40.36C318.097 40.36 316.767 40.015 315.567 39.325C314.377 38.625 313.437 37.665 312.747 36.445C312.067 35.215 311.727 33.84 311.727 32.32C311.727 30.8 312.067 29.43 312.747 28.21C313.437 26.98 314.382 26.02 315.582 25.33C316.782 24.63 318.112 24.28 319.572 24.28C321.032 24.28 322.357 24.63 323.547 25.33C324.737 26.02 325.672 26.975 326.352 28.195C327.042 29.415 327.387 30.79 327.387 32.32C327.387 33.85 327.042 35.225 326.352 36.445C325.672 37.665 324.737 38.625 323.547 39.325C322.357 40.015 321.027 40.36 319.557 40.36ZM314.247 32.32C314.247 33.47 314.477 34.49 314.937 35.38C315.407 36.26 316.047 36.945 316.857 37.435C317.677 37.925 318.587 38.17 319.587 38.17C320.587 38.17 321.487 37.925 322.287 37.435C323.087 36.945 323.717 36.26 324.177 35.38C324.637 34.49 324.867 33.47 324.867 32.32C324.867 31.17 324.637 30.15 324.177 29.26C323.717 28.37 323.082 27.68 322.272 27.19C321.472 26.7 320.572 26.455 319.572 26.455C318.572 26.455 317.667 26.7 316.857 27.19C316.047 27.68 315.407 28.37 314.937 29.26C314.477 30.15 314.247 31.17 314.247 32.32ZM336.277 40C335.547 40 334.882 39.845 334.282 39.535C333.692 39.215 333.227 38.78 332.887 38.23C332.547 37.67 332.377 37.05 332.377 36.37L332.362 26.77H329.662L329.677 24.64H331.342C331.722 24.64 332.027 24.52 332.257 24.28C332.497 24.04 332.617 23.735 332.617 23.365V20.89H334.777V24.64H338.482L338.467 26.77H334.762L334.777 36.22C334.777 36.69 334.932 37.085 335.242 37.405C335.562 37.715 335.957 37.87 336.427 37.87H338.467V40H336.277ZM342.651 19H345.051V40H342.651V19ZM350.297 24.64H352.697V40H350.297V24.64ZM352.907 19V21.85H350.087V19H352.907ZM357.944 24.64H360.254V27.13C360.774 26.21 361.464 25.505 362.324 25.015C363.194 24.525 364.199 24.28 365.339 24.28C366.439 24.28 367.414 24.515 368.264 24.985C369.114 25.455 369.779 26.15 370.259 27.07C370.749 27.98 370.994 29.075 370.994 30.355V40H368.594V30.595C368.594 29.265 368.249 28.23 367.559 27.49C366.869 26.75 365.919 26.38 364.709 26.38C363.849 26.38 363.089 26.57 362.429 26.95C361.769 27.33 361.254 27.865 360.884 28.555C360.524 29.235 360.344 30.015 360.344 30.895V40H357.944V24.64ZM388.268 40.36C387.108 40.36 386.058 40.175 385.118 39.805C384.188 39.435 383.443 38.92 382.883 38.26C382.333 37.59 382.038 36.835 381.998 35.995H384.443C384.483 36.455 384.673 36.87 385.013 37.24C385.353 37.6 385.803 37.885 386.363 38.095C386.923 38.305 387.548 38.41 388.238 38.41C388.938 38.41 389.553 38.295 390.083 38.065C390.623 37.835 391.038 37.515 391.328 37.105C391.628 36.695 391.778 36.23 391.778 35.71C391.778 35.15 391.618 34.68 391.298 34.3C390.988 33.91 390.553 33.665 389.993 33.565L386.288 32.89C385.108 32.67 384.188 32.195 383.528 31.465C382.868 30.725 382.538 29.79 382.538 28.66C382.538 27.85 382.768 27.115 383.228 26.455C383.698 25.785 384.353 25.255 385.193 24.865C386.033 24.475 386.993 24.28 388.073 24.28C389.143 24.28 390.108 24.455 390.968 24.805C391.828 25.155 392.513 25.64 393.023 26.26C393.533 26.88 393.808 27.57 393.848 28.33H391.403C391.373 27.93 391.208 27.57 390.908 27.25C390.618 26.93 390.228 26.68 389.738 26.5C389.248 26.32 388.698 26.23 388.088 26.23C387.468 26.23 386.918 26.335 386.438 26.545C385.958 26.755 385.583 27.045 385.313 27.415C385.053 27.775 384.923 28.185 384.923 28.645C384.923 29.165 385.068 29.595 385.358 29.935C385.648 30.275 386.073 30.495 386.633 30.595L390.428 31.27C391.208 31.41 391.878 31.685 392.438 32.095C393.008 32.505 393.438 33.015 393.728 33.625C394.028 34.235 394.178 34.9 394.178 35.62C394.178 36.52 393.918 37.33 393.398 38.05C392.888 38.77 392.183 39.335 391.283 39.745C390.383 40.155 389.378 40.36 388.268 40.36ZM404.467 40.36C403.027 40.36 401.732 40.015 400.582 39.325C399.432 38.635 398.532 37.68 397.882 36.46C397.242 35.23 396.922 33.84 396.922 32.29C396.922 30.78 397.247 29.415 397.897 28.195C398.557 26.975 399.462 26.02 400.612 25.33C401.762 24.63 403.047 24.28 404.467 24.28C405.917 24.28 407.187 24.625 408.277 25.315C409.377 26.005 410.222 26.96 410.812 28.18C411.412 29.4 411.712 30.78 411.712 32.32V32.905H399.367C399.467 33.955 399.752 34.885 400.222 35.695C400.692 36.505 401.307 37.135 402.067 37.585C402.827 38.035 403.677 38.26 404.617 38.26C405.627 38.26 406.517 38.075 407.287 37.705C408.057 37.335 408.617 36.83 408.967 36.19H411.367C411.187 36.83 410.807 37.47 410.227 38.11C409.657 38.75 408.877 39.285 407.887 39.715C406.907 40.145 405.767 40.36 404.467 40.36ZM409.222 30.925C409.022 29.525 408.512 28.42 407.692 27.61C406.882 26.8 405.817 26.395 404.497 26.395C403.607 26.395 402.807 26.58 402.097 26.95C401.387 27.31 400.802 27.835 400.342 28.525C399.882 29.205 399.577 30.005 399.427 30.925H409.222ZM415.659 24.64H418.059V27.19C418.549 26.32 419.184 25.655 419.964 25.195C420.744 24.725 421.639 24.49 422.649 24.49H423.189V26.995H422.559C421.649 26.995 420.854 27.17 420.174 27.52C419.494 27.87 418.969 28.37 418.599 29.02C418.239 29.66 418.059 30.415 418.059 31.285V40H415.659V24.64ZM426.381 24.64H428.781V40H426.381V24.64ZM428.991 19V21.85H426.171V19H428.991ZM439.443 24.28C440.603 24.28 441.623 24.495 442.503 24.925C443.383 25.345 444.063 25.965 444.543 26.785C445.033 27.595 445.278 28.56 445.278 29.68V40H442.938V37.495C442.508 38.425 441.878 39.135 441.048 39.625C440.218 40.115 439.233 40.36 438.093 40.36C437.113 40.36 436.228 40.17 435.438 39.79C434.648 39.41 434.028 38.885 433.578 38.215C433.128 37.545 432.903 36.785 432.903 35.935C432.903 35.135 433.108 34.4 433.518 33.73C433.938 33.05 434.513 32.495 435.243 32.065C435.983 31.635 436.813 31.37 437.733 31.27L441.828 30.82C442.168 30.78 442.433 30.64 442.623 30.4C442.813 30.16 442.908 29.81 442.908 29.35C442.908 28.74 442.763 28.205 442.473 27.745C442.183 27.285 441.773 26.93 441.243 26.68C440.723 26.42 440.118 26.29 439.428 26.29C438.738 26.29 438.118 26.41 437.568 26.65C437.018 26.88 436.573 27.195 436.233 27.595C435.903 27.985 435.703 28.41 435.633 28.87H433.233C433.353 28 433.693 27.22 434.253 26.53C434.823 25.83 435.558 25.28 436.458 24.88C437.358 24.48 438.353 24.28 439.443 24.28ZM435.393 35.8C435.393 36.32 435.528 36.78 435.798 37.18C436.078 37.58 436.463 37.895 436.953 38.125C437.443 38.345 438.003 38.455 438.633 38.455C439.493 38.455 440.243 38.28 440.883 37.93C441.533 37.58 442.033 37.09 442.383 36.46C442.733 35.82 442.908 35.085 442.908 34.255V32.5L438.063 33.04C437.263 33.13 436.618 33.43 436.128 33.94C435.638 34.45 435.393 35.07 435.393 35.8ZM450.082 19H452.482V40H450.082V19ZM457.729 24.64H460.129V40H457.729V24.64ZM460.339 19V21.85H457.519V19H460.339ZM472.71 26.77H464.46V24.64H475.53V26.71L466.89 37.87H475.5V40H464.07V37.93L472.71 26.77ZM484.882 24.28C486.042 24.28 487.062 24.495 487.942 24.925C488.822 25.345 489.502 25.965 489.982 26.785C490.472 27.595 490.717 28.56 490.717 29.68V40H488.377V37.495C487.947 38.425 487.317 39.135 486.487 39.625C485.657 40.115 484.672 40.36 483.532 40.36C482.552 40.36 481.667 40.17 480.877 39.79C480.087 39.41 479.467 38.885 479.017 38.215C478.567 37.545 478.342 36.785 478.342 35.935C478.342 35.135 478.547 34.4 478.957 33.73C479.377 33.05 479.952 32.495 480.682 32.065C481.422 31.635 482.252 31.37 483.172 31.27L487.267 30.82C487.607 30.78 487.872 30.64 488.062 30.4C488.252 30.16 488.347 29.81 488.347 29.35C488.347 28.74 488.202 28.205 487.912 27.745C487.622 27.285 487.212 26.93 486.682 26.68C486.162 26.42 485.557 26.29 484.867 26.29C484.177 26.29 483.557 26.41 483.007 26.65C482.457 26.88 482.012 27.195 481.672 27.595C481.342 27.985 481.142 28.41 481.072 28.87H478.672C478.792 28 479.132 27.22 479.692 26.53C480.262 25.83 480.997 25.28 481.897 24.88C482.797 24.48 483.792 24.28 484.882 24.28ZM480.832 35.8C480.832 36.32 480.967 36.78 481.237 37.18C481.517 37.58 481.902 37.895 482.392 38.125C482.882 38.345 483.442 38.455 484.072 38.455C484.932 38.455 485.682 38.28 486.322 37.93C486.972 37.58 487.472 37.09 487.822 36.46C488.172 35.82 488.347 35.085 488.347 34.255V32.5L483.502 33.04C482.702 33.13 482.057 33.43 481.567 33.94C481.077 34.45 480.832 35.07 480.832 35.8ZM500.457 40C499.727 40 499.062 39.845 498.462 39.535C497.872 39.215 497.407 38.78 497.067 38.23C496.727 37.67 496.557 37.05 496.557 36.37L496.542 26.77H493.842L493.857 24.64H495.522C495.902 24.64 496.207 24.52 496.437 24.28C496.677 24.04 496.797 23.735 496.797 23.365V20.89H498.957V24.64H502.662L502.647 26.77H498.942L498.957 36.22C498.957 36.69 499.112 37.085 499.422 37.405C499.742 37.715 500.137 37.87 500.607 37.87H502.647V40H500.457ZM506.831 24.64H509.231V40H506.831V24.64ZM509.441 19V21.85H506.621V19H509.441ZM521.002 40.36C519.542 40.36 518.212 40.015 517.012 39.325C515.822 38.625 514.882 37.665 514.192 36.445C513.512 35.215 513.172 33.84 513.172 32.32C513.172 30.8 513.512 29.43 514.192 28.21C514.882 26.98 515.827 26.02 517.027 25.33C518.227 24.63 519.557 24.28 521.017 24.28C522.477 24.28 523.802 24.63 524.992 25.33C526.182 26.02 527.117 26.975 527.797 28.195C528.487 29.415 528.832 30.79 528.832 32.32C528.832 33.85 528.487 35.225 527.797 36.445C527.117 37.665 526.182 38.625 524.992 39.325C523.802 40.015 522.472 40.36 521.002 40.36ZM515.692 32.32C515.692 33.47 515.922 34.49 516.382 35.38C516.852 36.26 517.492 36.945 518.302 37.435C519.122 37.925 520.032 38.17 521.032 38.17C522.032 38.17 522.932 37.925 523.732 37.435C524.532 36.945 525.162 36.26 525.622 35.38C526.082 34.49 526.312 33.47 526.312 32.32C526.312 31.17 526.082 30.15 525.622 29.26C525.162 28.37 524.527 27.68 523.717 27.19C522.917 26.7 522.017 26.455 521.017 26.455C520.017 26.455 519.112 26.7 518.302 27.19C517.492 27.68 516.852 28.37 516.382 29.26C515.922 30.15 515.692 31.17 515.692 32.32ZM532.788 24.64H535.098V27.13C535.618 26.21 536.308 25.505 537.168 25.015C538.038 24.525 539.043 24.28 540.183 24.28C541.283 24.28 542.258 24.515 543.108 24.985C543.958 25.455 544.623 26.15 545.103 27.07C545.593 27.98 545.838 29.075 545.838 30.355V40H543.438V30.595C543.438 29.265 543.093 28.23 542.403 27.49C541.713 26.75 540.763 26.38 539.553 26.38C538.693 26.38 537.933 26.57 537.273 26.95C536.613 27.33 536.098 27.865 535.728 28.555C535.368 29.235 535.188 30.015 535.188 30.895V40H532.788V24.64ZM564.654 30.835H550.629V28.6H564.654V22.93L571.989 29.695L564.654 36.58V30.835Z" fill="white"/>
</svg>
